<svg width="68" height="68" viewBox="0 0 68 68" fill="none" xmlns="http://www.w3.org/2000/svg">
<g filter="url(#filter0_dd_222_686)">
<path fill-rule="evenodd" clip-rule="evenodd" d="M5.291 21.858C7.32073 12.0386 13.5658 6.56954 23.3071 4.91727C30.5081 3.69624 37.7118 3.68083 44.9006 4.95163C54.9307 6.72459 60.9602 12.5126 62.8811 22.4804C64.3652 30.1841 64.3885 37.9697 62.8578 45.6659C60.8044 55.4174 54.3983 61.4366 44.693 63.0827C37.4919 64.3038 30.2882 64.3192 23.0994 63.0484C13.0693 61.2754 7.01302 55.1985 5.09215 45.2307C3.53254 37.4763 3.68267 29.6414 5.291 21.858Z" fill="#0BCD74"/>
</g>
<path fill-rule="evenodd" clip-rule="evenodd" d="M42.4798 36.6071L51.5087 41.1123C53.2272 41.9698 53.6011 44.2661 52.244 45.6279L46.427 51.4652C45.5685 52.3267 44.3523 52.7246 43.1532 52.5347C42.7981 52.4785 42.4001 52.4076 41.9668 52.32C38.4157 51.8362 31.4297 50.0214 24.7146 43.2827C17.6261 36.1695 15.605 28.2007 15.0342 24.5712C14.8449 23.3679 15.2415 22.1474 16.0999 21.2858L21.917 15.4486C23.2741 14.0867 25.5624 14.4619 26.4169 16.1864L30.9065 25.2468L28.6626 26.3585L24.5015 17.9012C24.2598 17.41 23.6088 17.3023 23.2228 17.6897L18.4597 22.4693C17.9623 22.9684 17.6959 23.6527 17.7237 24.358C17.805 26.4258 18.4148 30.3996 21.389 35.1907C22.6107 37.0195 24.1975 38.9922 26.2596 41.0616C33.3929 48.2197 39.8544 49.6046 42.9585 49.8133C43.3814 49.8048 43.7137 49.7744 43.946 49.7448C44.253 49.7058 44.5516 49.6097 44.8135 49.4446C44.9692 49.3461 45.1152 49.2302 45.2477 49.0972L50.0108 44.3176C50.3968 43.9302 50.2893 43.2768 49.8 43.0344L41.3721 38.8588L42.4798 36.6071ZM29.7362 37.6095C25.7568 33.6162 23.1351 29.0005 23.1351 29.0005L25.6724 28.0643C25.6724 28.0643 27.6281 31.9758 31.4892 35.8504C35.3502 39.7249 39.6245 41.8271 39.6245 41.8271L38.5293 44.3989C38.5293 44.3989 33.7158 41.6029 29.7362 37.6095Z" fill="white"/>
<defs>
<filter id="filter0_dd_222_686" x="1" y="2" width="66" height="66" filterUnits="userSpaceOnUse" color-interpolation-filters="sRGB">
<feFlood flood-opacity="0" result="BackgroundImageFix"/>
<feColorMatrix in="SourceAlpha" type="matrix" values="0 0 0 0 0 0 0 0 0 0 0 0 0 0 0 0 0 0 127 0" result="hardAlpha"/>
<feOffset dy="1"/>
<feGaussianBlur stdDeviation="1"/>
<feColorMatrix type="matrix" values="0 0 0 0 0 0 0 0 0 0 0 0 0 0 0 0 0 0 0.078125 0"/>
<feBlend mode="normal" in2="BackgroundImageFix" result="effect1_dropShadow_222_686"/>
<feColorMatrix in="SourceAlpha" type="matrix" values="0 0 0 0 0 0 0 0 0 0 0 0 0 0 0 0 0 0 127 0" result="hardAlpha"/>
<feOffset dy="1"/>
<feGaussianBlur stdDeviation="1.5"/>
<feColorMatrix type="matrix" values="0 0 0 0 0 0 0 0 0 0 0 0 0 0 0 0 0 0 0.210824 0"/>
<feBlend mode="normal" in2="effect1_dropShadow_222_686" result="effect2_dropShadow_222_686"/>
<feBlend mode="normal" in="SourceGraphic" in2="effect2_dropShadow_222_686" result="shape"/>
</filter>
</defs>
</svg>
