<svg width="85" height="84" viewBox="0 0 85 84" fill="none" xmlns="http://www.w3.org/2000/svg">
<g filter="url(#filter0_df_222_728)">
<path d="M47.9876 14C29.7713 14 15 25.7192 15 40.1811C15 49.5315 21.1712 57.7225 30.4653 62.3728L27.1194 74.4036C27.1194 74.4036 27.0575 74.9646 27.4168 75.1766C27.7762 75.3885 28.2099 75.2265 28.2099 75.2265C29.2508 75.0769 40.2302 67.3098 42.151 65.9633C44.0469 66.2376 46.0173 66.3747 48.0124 66.3747C66.2287 66.3747 81 54.6556 81 40.1936C81 25.7316 66.2039 14 47.9876 14Z" fill="#FF0000"/>
<path d="M29.7466 49.3069C28.6933 49.3069 27.8383 48.484 27.8383 47.4742V36.0916H24.8642C23.8356 36.0916 23.0054 35.2563 23.0054 34.2216C23.0054 33.1868 23.848 32.3515 24.8642 32.3515H34.6167C35.6452 32.3515 36.4755 33.1868 36.4755 34.2216C36.4755 35.2563 35.6329 36.0916 34.6167 36.0916H31.6426V47.4742C31.6426 48.4716 30.7752 49.3069 29.7342 49.3069H29.7466ZM46.4387 49.2819C45.6456 49.2819 45.0384 48.9578 44.8525 48.4342L43.9107 45.9407H38.1113L37.1695 48.4342C36.9836 48.9578 36.3764 49.2819 35.5833 49.2819C35.162 49.2819 34.753 49.1947 34.3689 49.0326C33.8484 48.7833 33.3403 48.1225 33.9228 46.3147L38.4706 34.259C38.7928 33.3364 39.7718 32.3889 41.011 32.3639C42.2502 32.339 43.2416 33.3364 43.5514 34.259L48.0992 46.3147C48.6817 48.1225 48.1736 48.8082 47.6531 49.0326C47.2814 49.2071 46.86 49.2819 46.4387 49.2819ZM42.907 42.5496L41.011 37.1139L39.115 42.5496H42.907ZM51.1601 49.0326C50.1687 49.0326 49.3384 48.2472 49.3384 47.2872V34.259C49.3384 33.1992 50.2059 32.339 51.284 32.339C52.3621 32.339 53.2296 33.2117 53.2296 34.259V45.5044H57.2694C58.2607 45.5044 59.091 46.2898 59.091 47.2498C59.091 48.2098 58.2731 48.9952 57.2694 48.9952L51.1601 49.0326ZM59.8221 47.362V34.2714C59.8221 33.2117 60.6896 32.3515 61.7305 32.3515C62.7714 32.3515 63.6389 33.2242 63.6389 34.2714V38.3856L68.9674 33.0247C69.554 32.4346 70.6629 32.4863 71.3343 33.1618C71.965 33.7964 72.129 34.869 71.4706 35.5431L67.1086 39.9066L71.7928 46.1402C72.4222 46.9508 72.2695 48.2133 71.4211 48.8082C70.5846 49.4315 69.3557 49.2238 68.7568 48.4342L64.2956 42.4873L63.6389 43.1481V47.3246C63.6389 49.8123 59.8221 49.9081 59.8221 47.362Z" fill="#FF0000"/>
</g>
<path d="M47.9887 16.1094C31.4285 16.1094 18 26.7632 18 39.9104C18 48.4108 23.6102 55.8571 32.0593 60.0846L29.0176 71.0218C29.0176 71.0218 28.9613 71.5318 29.288 71.7245C29.6147 71.9171 30.009 71.7698 30.009 71.7698C30.9553 71.6338 40.9365 64.5728 42.6827 63.3488C44.4063 63.5981 46.1975 63.7228 48.0113 63.7228C64.5715 63.7228 78 53.069 78 39.9217C78 26.7745 64.549 16.1094 47.9887 16.1094Z" fill="black"/>
<g filter="url(#filter1_d_222_728)">
<circle cx="19" cy="15" r="15" fill="#FF0000"/>
</g>
<defs>
<filter id="filter0_df_222_728" x="11" y="10" width="74" height="73.2857" filterUnits="userSpaceOnUse" color-interpolation-filters="sRGB">
<feFlood flood-opacity="0" result="BackgroundImageFix"/>
<feColorMatrix in="SourceAlpha" type="matrix" values="0 0 0 0 0 0 0 0 0 0 0 0 0 0 0 0 0 0 127 0" result="hardAlpha"/>
<feOffset dy="4"/>
<feGaussianBlur stdDeviation="2"/>
<feComposite in2="hardAlpha" operator="out"/>
<feColorMatrix type="matrix" values="0 0 0 0 0 0 0 0 0 0 0 0 0 0 0 0 0 0 0.25 0"/>
<feBlend mode="normal" in2="BackgroundImageFix" result="effect1_dropShadow_222_728"/>
<feBlend mode="normal" in="SourceGraphic" in2="effect1_dropShadow_222_728" result="shape"/>
<feGaussianBlur stdDeviation="2" result="effect2_foregroundBlur_222_728"/>
</filter>
<filter id="filter1_d_222_728" x="0" y="0" width="38" height="38" filterUnits="userSpaceOnUse" color-interpolation-filters="sRGB">
<feFlood flood-opacity="0" result="BackgroundImageFix"/>
<feColorMatrix in="SourceAlpha" type="matrix" values="0 0 0 0 0 0 0 0 0 0 0 0 0 0 0 0 0 0 127 0" result="hardAlpha"/>
<feOffset dy="4"/>
<feGaussianBlur stdDeviation="2"/>
<feComposite in2="hardAlpha" operator="out"/>
<feColorMatrix type="matrix" values="0 0 0 0 0 0 0 0 0 0 0 0 0 0 0 0 0 0 0.25 0"/>
<feBlend mode="normal" in2="BackgroundImageFix" result="effect1_dropShadow_222_728"/>
<feBlend mode="normal" in="SourceGraphic" in2="effect1_dropShadow_222_728" result="shape"/>
</filter>
</defs>
</svg>
