<svg width="66" height="66" viewBox="0 0 66 66" fill="none" xmlns="http://www.w3.org/2000/svg">
<g filter="url(#filter0_dd_8_449)">
<path fill-rule="evenodd" clip-rule="evenodd" d="M4.291 19.858C6.32073 10.0386 12.5658 4.56954 22.3071 2.91727C29.5081 1.69624 36.7118 1.68083 43.9006 2.95163C53.9307 4.72459 59.9602 10.5126 61.8811 20.4804C63.3652 28.1841 63.3885 35.9697 61.8578 43.6659C59.8044 53.4174 53.3983 59.4366 43.693 61.0827C36.4919 62.3038 29.2882 62.3192 22.0994 61.0484C12.0693 59.2754 6.01302 53.1985 4.09215 43.2307C2.53254 35.4763 2.68267 27.6414 4.291 19.858Z" fill="#777C8F"/>
</g>
<path fill-rule="evenodd" clip-rule="evenodd" d="M19.993 16.6567C18.7485 16.6567 17.7398 17.6689 17.7398 18.9177V47.5612H20.1518V19.077H48.2465V16.6567H19.993ZM25.0203 40.4569C24.6795 40.4569 24.3353 40.4236 24.0106 40.3674V42.2699C24.3369 42.3154 24.6703 42.3394 25.0092 42.3394C27.6682 42.3394 29.9901 40.8941 31.2396 38.7441C31.8191 39.013 32.4502 39.1607 33.1107 39.1607C33.6854 39.1607 34.2376 39.048 34.7531 38.8419C34.9416 39.1548 35.4166 39.7133 35.4311 39.7046C36.753 41.3305 38.7643 42.3695 41.0184 42.3695C41.3573 42.3695 41.6905 42.3453 42.0171 42.3V40.3973C41.6924 40.4537 41.348 40.487 41.0074 40.487C38.8732 40.487 37.2527 39.6004 36.2454 37.8939C36.9337 37.2631 37.4819 36.4297 37.8247 35.4691C38.9868 35.2402 39.8731 33.5641 39.8731 32.1288C39.8731 31.3446 39.5595 31.1116 39.1106 30.778C39.001 30.6965 38.8834 30.6091 38.7603 30.5062C38.8305 30.1377 38.944 29.5034 38.944 29.1143C38.944 26.6582 37.4792 24.5469 35.3791 23.6079L35.2933 25.7554C36.7173 26.5913 37.2587 27.4766 37.2587 29.2515C37.2587 29.5626 37.2255 31.1084 37.1693 31.403C37.2907 31.4217 37.4071 31.4298 37.5154 31.4373C37.9397 31.4667 38.2413 31.4876 38.2413 32.1089C38.2413 33.2562 37.4731 34.2231 36.5441 34.406C35.9254 36.1396 34.7332 37.4539 33.0378 37.4539C31.3485 37.4539 29.9752 35.9952 29.3528 34.2715C28.3684 34.1469 27.7895 33.4931 27.7895 32.2993C27.7895 31.7562 27.9926 31.6965 28.3188 31.6005L28.3188 31.6005C28.4152 31.5721 28.5224 31.5406 28.6382 31.4925C28.584 31.2458 28.6097 30.3892 28.6269 29.8122C28.6331 29.6058 28.6382 29.4352 28.6382 29.3411C28.6382 24.3191 33.5009 24.3219 33.762 24.3659V22.2603C33.4925 22.2232 26.9326 23.1917 26.9326 29.1143C26.9326 29.5609 27.0303 30.291 27.1223 30.7101C27.0334 30.7998 26.9487 30.8794 26.8692 30.9541C26.4781 31.3216 26.2146 31.5692 26.2146 32.3011C26.2146 33.7942 27.1735 35.3365 28.4052 35.4925C28.7662 36.4927 29.1087 37.1301 29.8419 37.7664C28.8394 39.5382 27.1957 40.4569 25.0203 40.4569ZM43.2945 45.0064C44.6974 45.0064 45.8345 43.8652 45.8345 42.4575V22.9766H48.2465V42.4241C48.2465 45.187 46.0146 47.4268 43.2612 47.4268H23.9036V45.0064H43.2945Z" fill="white"/>
<defs>
<filter id="filter0_dd_8_449" x="0" y="0" width="66" height="66" filterUnits="userSpaceOnUse" color-interpolation-filters="sRGB">
<feFlood flood-opacity="0" result="BackgroundImageFix"/>
<feColorMatrix in="SourceAlpha" type="matrix" values="0 0 0 0 0 0 0 0 0 0 0 0 0 0 0 0 0 0 127 0" result="hardAlpha"/>
<feOffset dy="1"/>
<feGaussianBlur stdDeviation="1"/>
<feColorMatrix type="matrix" values="0 0 0 0 0 0 0 0 0 0 0 0 0 0 0 0 0 0 0.078125 0"/>
<feBlend mode="normal" in2="BackgroundImageFix" result="effect1_dropShadow_8_449"/>
<feColorMatrix in="SourceAlpha" type="matrix" values="0 0 0 0 0 0 0 0 0 0 0 0 0 0 0 0 0 0 127 0" result="hardAlpha"/>
<feOffset dy="1"/>
<feGaussianBlur stdDeviation="1.5"/>
<feColorMatrix type="matrix" values="0 0 0 0 0 0 0 0 0 0 0 0 0 0 0 0 0 0 0.210824 0"/>
<feBlend mode="normal" in2="effect1_dropShadow_8_449" result="effect2_dropShadow_8_449"/>
<feBlend mode="normal" in="SourceGraphic" in2="effect2_dropShadow_8_449" result="shape"/>
</filter>
</defs>
</svg>
