<svg width="66" height="66" viewBox="0 0 66 66" fill="none" xmlns="http://www.w3.org/2000/svg">
<g filter="url(#filter0_dd_8_443)">
<path fill-rule="evenodd" clip-rule="evenodd" d="M4.291 19.858C6.32073 10.0386 12.5658 4.56954 22.3071 2.91727C29.5081 1.69624 36.7118 1.68083 43.9006 2.95163C53.9307 4.72459 59.9602 10.5126 61.8811 20.4804C63.3652 28.1841 63.3885 35.9697 61.8578 43.6659C59.8044 53.4174 53.3983 59.4366 43.693 61.0827C36.4919 62.3038 29.2882 62.3192 22.0994 61.0484C12.0693 59.2754 6.01302 53.1985 4.09215 43.2307C2.53254 35.4763 2.68267 27.6414 4.291 19.858Z" fill="#777C8F"/>
</g>
<path fill-rule="evenodd" clip-rule="evenodd" d="M27.5733 24.1726C28.1293 24.4515 28.6629 24.7436 29.1739 25.0444C29.149 24.571 29.1353 24.0879 29.1353 23.5959C29.1353 17.9333 30.8424 13.3429 32.9482 13.3429C35.0428 13.3429 36.7553 18.552 36.7735 24.1726L39.1795 23.1782L39.1799 23.1278C39.1801 23.0999 39.1804 23.0721 39.1804 23.0441C39.1804 16.286 36.4317 10.8075 33.0412 10.8075C29.9657 10.8075 27.4183 15.3154 26.9715 21.1971C21.3529 18.7494 15.9265 18.9518 14.5107 21.7946C13.5351 23.7534 14.7016 26.4879 17.2628 28.9937L19.4439 27.9537C17.2552 26.092 16.1319 24.2108 16.7292 23.0115C17.6706 21.1212 22.5257 21.6411 27.5733 24.1726ZM42.5917 31.2099C42.0725 31.5532 41.5531 31.8703 41.0379 32.1633C41.4587 32.3787 41.8822 32.609 42.3065 32.8554C47.1901 35.6923 50.2938 39.4747 49.2387 41.3036C48.1895 43.1225 42.5932 42.1561 37.7366 39.3561L37.2324 41.6533L37.274 41.6779C37.2985 41.6924 37.323 41.7069 37.3478 41.7212C43.1762 45.1071 49.6802 45.5991 51.3789 42.6545C52.9197 39.9834 50.308 35.5128 45.4592 32.178C50.3852 28.5246 52.9293 23.7108 51.1869 21.0569C49.9864 19.2283 46.8479 18.971 43.4036 19.9398V22.2556C46.1057 21.2873 48.2907 21.2544 49.0259 22.3739C50.1845 24.1385 47.3037 28.0946 42.5917 31.2099ZM28.8911 38.8209C28.8779 39.4151 28.8833 40.0252 28.9112 40.6483C29.1643 46.3052 31.0749 50.8141 33.1785 50.7195C34.5132 50.6593 35.6042 48.7591 36.1594 45.9343L38.1264 47.34C37.1914 50.8048 35.3789 53.1583 33.1988 53.2565C30.0349 53.399 27.218 48.7408 26.6139 42.6239C21.2763 45.0951 16.1122 45.0561 14.6153 42.3601C12.9651 39.3879 16.3964 34.3118 22.2795 31.0227C22.3042 31.0089 22.3289 30.9953 22.3537 30.9817C22.3681 30.9739 22.3824 30.966 22.3968 30.9581L24.4385 32.6679C19.5545 35.4195 15.8483 39.3715 16.8677 41.2076C17.8927 43.0535 22.7197 42.3158 27.649 39.5597C28.0772 39.3203 28.4911 39.073 28.8911 38.8209Z" fill="white"/>
<defs>
<filter id="filter0_dd_8_443" x="0" y="0" width="66" height="66" filterUnits="userSpaceOnUse" color-interpolation-filters="sRGB">
<feFlood flood-opacity="0" result="BackgroundImageFix"/>
<feColorMatrix in="SourceAlpha" type="matrix" values="0 0 0 0 0 0 0 0 0 0 0 0 0 0 0 0 0 0 127 0" result="hardAlpha"/>
<feOffset dy="1"/>
<feGaussianBlur stdDeviation="1"/>
<feColorMatrix type="matrix" values="0 0 0 0 0 0 0 0 0 0 0 0 0 0 0 0 0 0 0.078125 0"/>
<feBlend mode="normal" in2="BackgroundImageFix" result="effect1_dropShadow_8_443"/>
<feColorMatrix in="SourceAlpha" type="matrix" values="0 0 0 0 0 0 0 0 0 0 0 0 0 0 0 0 0 0 127 0" result="hardAlpha"/>
<feOffset dy="1"/>
<feGaussianBlur stdDeviation="1.5"/>
<feColorMatrix type="matrix" values="0 0 0 0 0 0 0 0 0 0 0 0 0 0 0 0 0 0 0.210824 0"/>
<feBlend mode="normal" in2="effect1_dropShadow_8_443" result="effect2_dropShadow_8_443"/>
<feBlend mode="normal" in="SourceGraphic" in2="effect2_dropShadow_8_443" result="shape"/>
</filter>
</defs>
</svg>
