<svg width="67" height="66" viewBox="0 0 67 66" fill="none" xmlns="http://www.w3.org/2000/svg">
<g filter="url(#filter0_dd_8_402)">
<path fill-rule="evenodd" clip-rule="evenodd" d="M5.2047 19.858C7.23443 10.0386 13.4794 4.56954 23.2208 2.91727C30.4218 1.69624 37.6255 1.68083 44.8143 2.95163C54.8444 4.72459 60.8739 10.5126 62.7948 20.4804C64.2789 28.1841 64.3022 35.9697 62.7715 43.6659C60.7181 53.4174 54.312 59.4366 44.6067 61.0827C37.4056 62.3038 30.2019 62.3192 23.0131 61.0484C12.983 59.2754 6.92672 53.1985 5.00585 43.2307C3.44624 35.4763 3.59636 27.6414 5.2047 19.858Z" fill="#777C8F"/>
</g>
<path fill-rule="evenodd" clip-rule="evenodd" d="M19.6929 19.7861V16.6935C19.6929 15.0394 21.0283 13.6985 22.6755 13.6985H46.0211C47.7053 13.6985 49.0709 15.0695 49.0709 16.7608L49.0588 33.9461C49.0573 36.0695 48.2167 38.1055 46.7216 39.6069L43.9253 42.4148L42.1718 40.654L44.3197 38.4972C45.7739 37.0368 46.591 35.0561 46.591 32.9909V16.1886H22.1727V20.9404C22.1727 21.6782 21.5772 22.2762 20.8425 22.2762H16.7775V19.7861H19.6929ZM20.8425 40.3132C21.5772 40.3132 22.1727 39.7152 22.1727 38.9774V37.823V33.7624H19.6929V37.823H16.7775V40.3132H19.6929H20.8425ZM22.1727 42.7809H19.6929V44.78C19.6929 47.2938 21.7223 49.3317 24.2257 49.3317H48.1771V46.8415H24.347C23.1462 46.8415 22.1727 45.8639 22.1727 44.658V42.7809ZM20.8425 31.2947C21.5772 31.2947 22.1727 30.6967 22.1727 29.9589V28.8046V24.744H19.6929V28.8046H16.7775V31.2947H19.6929H20.8425ZM41.9776 23.39H25.8923V25.8128H41.9776V23.39ZM25.8893 30.4854H41.9745V32.9083H25.8893V30.4854ZM37.1451 37.4776H25.8893V39.9005H37.1451V37.4776Z" fill="white"/>
<defs>
<filter id="filter0_dd_8_402" x="0.913696" y="0" width="66" height="66" filterUnits="userSpaceOnUse" color-interpolation-filters="sRGB">
<feFlood flood-opacity="0" result="BackgroundImageFix"/>
<feColorMatrix in="SourceAlpha" type="matrix" values="0 0 0 0 0 0 0 0 0 0 0 0 0 0 0 0 0 0 127 0" result="hardAlpha"/>
<feOffset dy="1"/>
<feGaussianBlur stdDeviation="1"/>
<feColorMatrix type="matrix" values="0 0 0 0 0 0 0 0 0 0 0 0 0 0 0 0 0 0 0.078125 0"/>
<feBlend mode="normal" in2="BackgroundImageFix" result="effect1_dropShadow_8_402"/>
<feColorMatrix in="SourceAlpha" type="matrix" values="0 0 0 0 0 0 0 0 0 0 0 0 0 0 0 0 0 0 127 0" result="hardAlpha"/>
<feOffset dy="1"/>
<feGaussianBlur stdDeviation="1.5"/>
<feColorMatrix type="matrix" values="0 0 0 0 0 0 0 0 0 0 0 0 0 0 0 0 0 0 0.210824 0"/>
<feBlend mode="normal" in2="effect1_dropShadow_8_402" result="effect2_dropShadow_8_402"/>
<feBlend mode="normal" in="SourceGraphic" in2="effect2_dropShadow_8_402" result="shape"/>
</filter>
</defs>
</svg>
