<svg width="86" height="85" viewBox="0 0 86 85" fill="none" xmlns="http://www.w3.org/2000/svg">
<g filter="url(#filter0_df_222_729)">
<path fill-rule="evenodd" clip-rule="evenodd" d="M16.4631 34.239C18.7635 23.1104 25.8412 16.9121 36.8813 15.0396C45.0425 13.6557 53.2067 13.6383 61.354 15.0785C72.7215 17.0879 79.5549 23.6476 81.7319 34.9444C83.4139 43.6753 83.4403 52.499 81.7056 61.2213C79.3783 72.273 72.1181 79.0948 61.1187 80.9604C52.9575 82.3443 44.7933 82.3617 36.646 80.9215C25.2785 78.9121 18.4148 72.0249 16.2378 60.7281C14.4702 51.9398 14.6404 43.0602 16.4631 34.239Z" fill="#FF0000"/>
</g>
<g filter="url(#filter1_dd_222_729)">
<path fill-rule="evenodd" clip-rule="evenodd" d="M20.291 35.858C22.3207 26.0386 28.5658 20.5695 38.3071 18.9173C45.5081 17.6962 52.7118 17.6808 59.9006 18.9516C69.9307 20.7246 75.9602 26.5126 77.8811 36.4804C79.3652 44.1841 79.3885 51.9697 77.8578 59.6659C75.8044 69.4174 69.3983 75.4366 59.693 77.0827C52.4919 78.3038 45.2882 78.3192 38.0994 77.0484C28.0693 75.2754 22.013 69.1985 20.0922 59.2307C18.5325 51.4763 18.6827 43.6414 20.291 35.858Z" fill="#0BCD74"/>
</g>
<g filter="url(#filter2_d_222_729)">
<circle cx="19" cy="15" r="15" fill="#FF0000"/>
</g>
<path fill-rule="evenodd" clip-rule="evenodd" d="M57.4798 50.6071L66.5087 55.1123C68.2272 55.9698 68.6011 58.2661 67.244 59.6279L61.427 65.4652C60.5685 66.3267 59.3523 66.7246 58.1532 66.5347C57.7981 66.4785 57.4001 66.4076 56.9668 66.32C53.4157 65.8362 46.4297 64.0214 39.7146 57.2827C32.6261 50.1695 30.605 42.2007 30.0342 38.5712C29.8449 37.3679 30.2415 36.1474 31.0999 35.2858L36.917 29.4486C38.2741 28.0867 40.5624 28.4619 41.4169 30.1864L45.9065 39.2468L43.6626 40.3585L39.5015 31.9012C39.2598 31.41 38.6088 31.3023 38.2228 31.6897L33.4597 36.4693C32.9623 36.9684 32.6959 37.6527 32.7237 38.358C32.805 40.4258 33.4148 44.3996 36.389 49.1907C37.6107 51.0195 39.1975 52.9922 41.2596 55.0616C48.3929 62.2197 54.8544 63.6046 57.9585 63.8133C58.3814 63.8048 58.7137 63.7744 58.946 63.7448C59.253 63.7058 59.5516 63.6097 59.8135 63.4446C59.9692 63.3461 60.1152 63.2302 60.2477 63.0972L65.0108 58.3176C65.3968 57.9302 65.2893 57.2768 64.8 57.0344L56.3721 52.8588L57.4798 50.6071ZM44.7362 51.6095C40.7568 47.6162 38.1351 43.0005 38.1351 43.0005L40.6724 42.0643C40.6724 42.0643 42.6281 45.9758 46.4892 49.8504C50.3502 53.7249 54.6245 55.8271 54.6245 55.8271L53.5293 58.3989C53.5293 58.3989 48.7158 55.6029 44.7362 51.6095Z" fill="white"/>
<defs>
<filter id="filter0_df_222_729" x="12" y="11" width="74" height="74" filterUnits="userSpaceOnUse" color-interpolation-filters="sRGB">
<feFlood flood-opacity="0" result="BackgroundImageFix"/>
<feColorMatrix in="SourceAlpha" type="matrix" values="0 0 0 0 0 0 0 0 0 0 0 0 0 0 0 0 0 0 127 0" result="hardAlpha"/>
<feOffset dy="1"/>
<feGaussianBlur stdDeviation="1"/>
<feColorMatrix type="matrix" values="0 0 0 0 0 0 0 0 0 0 0 0 0 0 0 0 0 0 0.078125 0"/>
<feBlend mode="normal" in2="BackgroundImageFix" result="effect1_dropShadow_222_729"/>
<feBlend mode="normal" in="SourceGraphic" in2="effect1_dropShadow_222_729" result="shape"/>
<feGaussianBlur stdDeviation="1.5" result="effect2_foregroundBlur_222_729"/>
</filter>
<filter id="filter1_dd_222_729" x="16" y="16" width="66" height="66" filterUnits="userSpaceOnUse" color-interpolation-filters="sRGB">
<feFlood flood-opacity="0" result="BackgroundImageFix"/>
<feColorMatrix in="SourceAlpha" type="matrix" values="0 0 0 0 0 0 0 0 0 0 0 0 0 0 0 0 0 0 127 0" result="hardAlpha"/>
<feOffset dy="1"/>
<feGaussianBlur stdDeviation="1"/>
<feColorMatrix type="matrix" values="0 0 0 0 0 0 0 0 0 0 0 0 0 0 0 0 0 0 0.078125 0"/>
<feBlend mode="normal" in2="BackgroundImageFix" result="effect1_dropShadow_222_729"/>
<feColorMatrix in="SourceAlpha" type="matrix" values="0 0 0 0 0 0 0 0 0 0 0 0 0 0 0 0 0 0 127 0" result="hardAlpha"/>
<feOffset dy="1"/>
<feGaussianBlur stdDeviation="1.5"/>
<feColorMatrix type="matrix" values="0 0 0 0 0 0 0 0 0 0 0 0 0 0 0 0 0 0 0.210824 0"/>
<feBlend mode="normal" in2="effect1_dropShadow_222_729" result="effect2_dropShadow_222_729"/>
<feBlend mode="normal" in="SourceGraphic" in2="effect2_dropShadow_222_729" result="shape"/>
</filter>
<filter id="filter2_d_222_729" x="0" y="0" width="38" height="38" filterUnits="userSpaceOnUse" color-interpolation-filters="sRGB">
<feFlood flood-opacity="0" result="BackgroundImageFix"/>
<feColorMatrix in="SourceAlpha" type="matrix" values="0 0 0 0 0 0 0 0 0 0 0 0 0 0 0 0 0 0 127 0" result="hardAlpha"/>
<feOffset dy="4"/>
<feGaussianBlur stdDeviation="2"/>
<feComposite in2="hardAlpha" operator="out"/>
<feColorMatrix type="matrix" values="0 0 0 0 0 0 0 0 0 0 0 0 0 0 0 0 0 0 0.25 0"/>
<feBlend mode="normal" in2="BackgroundImageFix" result="effect1_dropShadow_222_729"/>
<feBlend mode="normal" in="SourceGraphic" in2="effect1_dropShadow_222_729" result="shape"/>
</filter>
</defs>
</svg>
