<svg width="86" height="85" viewBox="0 0 86 85" fill="none" xmlns="http://www.w3.org/2000/svg">
<g filter="url(#filter0_df_222_727)">
<path fill-rule="evenodd" clip-rule="evenodd" d="M16.4631 34.239C18.7635 23.1104 25.8412 16.9121 36.8813 15.0396C45.0425 13.6557 53.2067 13.6383 61.354 15.0785C72.7215 17.0879 79.5549 23.6476 81.7319 34.9444C83.4139 43.6753 83.4403 52.499 81.7056 61.2213C79.3783 72.273 72.1181 79.0948 61.1187 80.9604C52.9575 82.3443 44.7933 82.3617 36.646 80.9215C25.2785 78.9121 18.4148 72.0249 16.2378 60.7281C14.4702 51.9398 14.6404 43.0602 16.4631 34.239Z" fill="#FF0000"/>
</g>
<g filter="url(#filter1_dd_222_727)">
<path fill-rule="evenodd" clip-rule="evenodd" d="M20.291 35.858C22.3207 26.0386 28.5658 20.5695 38.3071 18.9173C45.5081 17.6962 52.7118 17.6808 59.9006 18.9516C69.9307 20.7246 75.9602 26.5126 77.8811 36.4804C79.3652 44.1841 79.3885 51.9697 77.8578 59.6659C75.8044 69.4174 69.3983 75.4366 59.693 77.0827C52.4919 78.3038 45.2882 78.3192 38.0994 77.0484C28.0693 75.2754 22.013 69.1985 20.0922 59.2307C18.5325 51.4763 18.6827 43.6414 20.291 35.858Z" fill="#FD910C"/>
</g>
<path fill-rule="evenodd" clip-rule="evenodd" d="M66.539 35.1667H35.2114C34.596 35.1667 34.0971 35.6673 34.0971 36.2849V57.5327H31.4618V35.4465C31.4618 33.8315 32.7665 32.5222 34.376 32.5222H66.577L66.539 35.1667ZM60.5229 56.9052C62.4006 56.9052 63.9227 55.3777 63.9227 53.4936V40.2316H66.558V53.293C66.558 56.7485 63.7664 59.5498 60.323 59.5498H42.6657L33.5509 66.7664L31.9186 64.6904L41.7271 56.9243L41.7461 56.9537V56.9052H60.5229Z" fill="white"/>
<g filter="url(#filter2_d_222_727)">
<circle cx="19" cy="15" r="15" fill="#FF0000"/>
</g>
<defs>
<filter id="filter0_df_222_727" x="12" y="11" width="74" height="74" filterUnits="userSpaceOnUse" color-interpolation-filters="sRGB">
<feFlood flood-opacity="0" result="BackgroundImageFix"/>
<feColorMatrix in="SourceAlpha" type="matrix" values="0 0 0 0 0 0 0 0 0 0 0 0 0 0 0 0 0 0 127 0" result="hardAlpha"/>
<feOffset dy="1"/>
<feGaussianBlur stdDeviation="1"/>
<feColorMatrix type="matrix" values="0 0 0 0 0 0 0 0 0 0 0 0 0 0 0 0 0 0 0.078125 0"/>
<feBlend mode="normal" in2="BackgroundImageFix" result="effect1_dropShadow_222_727"/>
<feBlend mode="normal" in="SourceGraphic" in2="effect1_dropShadow_222_727" result="shape"/>
<feGaussianBlur stdDeviation="1.5" result="effect2_foregroundBlur_222_727"/>
</filter>
<filter id="filter1_dd_222_727" x="16" y="16" width="66" height="66" filterUnits="userSpaceOnUse" color-interpolation-filters="sRGB">
<feFlood flood-opacity="0" result="BackgroundImageFix"/>
<feColorMatrix in="SourceAlpha" type="matrix" values="0 0 0 0 0 0 0 0 0 0 0 0 0 0 0 0 0 0 127 0" result="hardAlpha"/>
<feOffset dy="1"/>
<feGaussianBlur stdDeviation="1"/>
<feColorMatrix type="matrix" values="0 0 0 0 0 0 0 0 0 0 0 0 0 0 0 0 0 0 0.078125 0"/>
<feBlend mode="normal" in2="BackgroundImageFix" result="effect1_dropShadow_222_727"/>
<feColorMatrix in="SourceAlpha" type="matrix" values="0 0 0 0 0 0 0 0 0 0 0 0 0 0 0 0 0 0 127 0" result="hardAlpha"/>
<feOffset dy="1"/>
<feGaussianBlur stdDeviation="1.5"/>
<feColorMatrix type="matrix" values="0 0 0 0 0 0 0 0 0 0 0 0 0 0 0 0 0 0 0.210824 0"/>
<feBlend mode="normal" in2="effect1_dropShadow_222_727" result="effect2_dropShadow_222_727"/>
<feBlend mode="normal" in="SourceGraphic" in2="effect2_dropShadow_222_727" result="shape"/>
</filter>
<filter id="filter2_d_222_727" x="0" y="0" width="38" height="38" filterUnits="userSpaceOnUse" color-interpolation-filters="sRGB">
<feFlood flood-opacity="0" result="BackgroundImageFix"/>
<feColorMatrix in="SourceAlpha" type="matrix" values="0 0 0 0 0 0 0 0 0 0 0 0 0 0 0 0 0 0 127 0" result="hardAlpha"/>
<feOffset dy="4"/>
<feGaussianBlur stdDeviation="2"/>
<feComposite in2="hardAlpha" operator="out"/>
<feColorMatrix type="matrix" values="0 0 0 0 0 0 0 0 0 0 0 0 0 0 0 0 0 0 0.25 0"/>
<feBlend mode="normal" in2="BackgroundImageFix" result="effect1_dropShadow_222_727"/>
<feBlend mode="normal" in="SourceGraphic" in2="effect1_dropShadow_222_727" result="shape"/>
</filter>
</defs>
</svg>
