<svg width="66" height="66" viewBox="0 0 66 66" fill="none" xmlns="http://www.w3.org/2000/svg">
<g filter="url(#filter0_dd_222_612)">
<path fill-rule="evenodd" clip-rule="evenodd" d="M4.291 19.858C6.32073 10.0386 12.5658 4.56954 22.3071 2.91727C29.5081 1.69624 36.7118 1.68083 43.9006 2.95163C53.9307 4.72459 59.9602 10.5126 61.8811 20.4804C63.3652 28.1841 63.3885 35.9697 61.8578 43.6659C59.8044 53.4174 53.3983 59.4366 43.693 61.0827C36.4919 62.3038 29.2882 62.3192 22.0994 61.0484C12.0693 59.2754 6.01302 53.1985 4.09215 43.2307C2.53254 35.4763 2.68267 27.6414 4.291 19.858Z" fill="#F8F9F9"/>
</g>
<path fill-rule="evenodd" clip-rule="evenodd" d="M21.8011 22.6498C23.2301 22.6498 24.3885 21.4888 24.3885 20.0567C24.3885 18.6245 23.2301 17.4635 21.8011 17.4635C20.3721 17.4635 19.2136 18.6245 19.2136 20.0567C19.2136 21.4888 20.3721 22.6498 21.8011 22.6498ZM21.8011 34.7003C23.2301 34.7003 24.3885 33.5394 24.3885 32.1072C24.3885 30.675 23.2301 29.514 21.8011 29.514C20.3721 29.514 19.2136 30.675 19.2136 32.1072C19.2136 33.5394 20.3721 34.7003 21.8011 34.7003ZM24.3885 43.2425C24.3885 44.6746 23.2301 45.8356 21.8011 45.8356C20.3721 45.8356 19.2136 44.6746 19.2136 43.2425C19.2136 41.8103 20.3721 40.6493 21.8011 40.6493C23.2301 40.6493 24.3885 41.8103 24.3885 43.2425ZM33.2164 22.6498C34.6454 22.6498 35.8038 21.4888 35.8038 20.0567C35.8038 18.6245 34.6454 17.4635 33.2164 17.4635C31.7873 17.4635 30.6289 18.6245 30.6289 20.0567C30.6289 21.4888 31.7873 22.6498 33.2164 22.6498ZM35.8038 32.1072C35.8038 33.5394 34.6454 34.7003 33.2164 34.7003C31.7874 34.7003 30.6289 33.5394 30.6289 32.1072C30.6289 30.675 31.7874 29.514 33.2164 29.514C34.6454 29.514 35.8038 30.675 35.8038 32.1072ZM33.2164 45.8356C34.6454 45.8356 35.8038 44.6746 35.8038 43.2425C35.8038 41.8103 34.6454 40.6493 33.2164 40.6493C31.7874 40.6493 30.6289 41.8103 30.6289 43.2425C30.6289 44.6746 31.7874 45.8356 33.2164 45.8356ZM47.2191 20.0567C47.2191 21.4888 46.0606 22.6498 44.6316 22.6498C43.2026 22.6498 42.0442 21.4888 42.0442 20.0567C42.0442 18.6245 43.2026 17.4635 44.6316 17.4635C46.0606 17.4635 47.2191 18.6245 47.2191 20.0567ZM44.6317 34.7003C46.0607 34.7003 47.2191 33.5394 47.2191 32.1072C47.2191 30.675 46.0607 29.514 44.6317 29.514C43.2026 29.514 42.0442 30.675 42.0442 32.1072C42.0442 33.5394 43.2026 34.7003 44.6317 34.7003ZM47.2191 43.2425C47.2191 44.6746 46.0607 45.8356 44.6317 45.8356C43.2026 45.8356 42.0442 44.6746 42.0442 43.2425C42.0442 41.8103 43.2026 40.6493 44.6317 40.6493C46.0607 40.6493 47.2191 41.8103 47.2191 43.2425Z" fill="#7A7E8E"/>
<defs>
<filter id="filter0_dd_222_612" x="0" y="0" width="66" height="66" filterUnits="userSpaceOnUse" color-interpolation-filters="sRGB">
<feFlood flood-opacity="0" result="BackgroundImageFix"/>
<feColorMatrix in="SourceAlpha" type="matrix" values="0 0 0 0 0 0 0 0 0 0 0 0 0 0 0 0 0 0 127 0" result="hardAlpha"/>
<feOffset dy="1"/>
<feGaussianBlur stdDeviation="1"/>
<feColorMatrix type="matrix" values="0 0 0 0 0 0 0 0 0 0 0 0 0 0 0 0 0 0 0.078125 0"/>
<feBlend mode="normal" in2="BackgroundImageFix" result="effect1_dropShadow_222_612"/>
<feColorMatrix in="SourceAlpha" type="matrix" values="0 0 0 0 0 0 0 0 0 0 0 0 0 0 0 0 0 0 127 0" result="hardAlpha"/>
<feOffset dy="1"/>
<feGaussianBlur stdDeviation="1.5"/>
<feColorMatrix type="matrix" values="0 0 0 0 0 0 0 0 0 0 0 0 0 0 0 0 0 0 0.210824 0"/>
<feBlend mode="normal" in2="effect1_dropShadow_222_612" result="effect2_dropShadow_222_612"/>
<feBlend mode="normal" in="SourceGraphic" in2="effect2_dropShadow_222_612" result="shape"/>
</filter>
</defs>
</svg>
