<svg width="66" height="66" viewBox="0 0 66 66" fill="none" xmlns="http://www.w3.org/2000/svg">
<g filter="url(#filter0_dd_8_464)">
<path fill-rule="evenodd" clip-rule="evenodd" d="M4.291 19.858C6.32073 10.0386 12.5658 4.56954 22.3071 2.91727C29.5081 1.69624 36.7118 1.68083 43.9006 2.95163C53.9307 4.72459 59.9602 10.5126 61.8811 20.4804C63.3652 28.1841 63.3885 35.9697 61.8578 43.6659C59.8044 53.4174 53.3983 59.4366 43.693 61.0827C36.4919 62.3038 29.2882 62.3192 22.0994 61.0484C12.0693 59.2754 6.01302 53.1985 4.09215 43.2307C2.53254 35.4763 2.68267 27.6414 4.291 19.858Z" fill="#777C8F"/>
</g>
<path fill-rule="evenodd" clip-rule="evenodd" d="M33.8148 15.3119V17.6875H21.9831V48.4776H19.6157V17.9536C19.6157 16.4945 20.7944 15.3119 22.2481 15.3119H33.8148ZM33.8147 26.9631H26.2626V24.5875H33.8147V26.9631ZM26.2626 34.045H41.8546V31.6694H26.2626V34.045ZM41.8546 41.1267H26.2626V38.7511H41.8546V41.1267ZM39.5589 15.8456C39.0711 15.3815 38.3864 15.3119 38.3864 15.3119C37.6873 15.3119 37.1206 15.8806 37.1206 16.5821V25.0457C37.1206 26.1046 37.9761 26.9632 39.0314 26.9632H45.6113V43.1853C45.6113 44.7961 44.3099 46.102 42.7047 46.102H26.2627V48.4776H42.3231C45.4466 48.4776 47.9786 45.9367 47.9786 42.8023V24.4382C47.9786 24.4382 40.0467 16.3096 39.5589 15.8456ZM39.488 18.7279L44.9166 24.5876H39.488V18.7279Z" fill="white"/>
<defs>
<filter id="filter0_dd_8_464" x="0" y="0" width="66" height="66" filterUnits="userSpaceOnUse" color-interpolation-filters="sRGB">
<feFlood flood-opacity="0" result="BackgroundImageFix"/>
<feColorMatrix in="SourceAlpha" type="matrix" values="0 0 0 0 0 0 0 0 0 0 0 0 0 0 0 0 0 0 127 0" result="hardAlpha"/>
<feOffset dy="1"/>
<feGaussianBlur stdDeviation="1"/>
<feColorMatrix type="matrix" values="0 0 0 0 0 0 0 0 0 0 0 0 0 0 0 0 0 0 0.078125 0"/>
<feBlend mode="normal" in2="BackgroundImageFix" result="effect1_dropShadow_8_464"/>
<feColorMatrix in="SourceAlpha" type="matrix" values="0 0 0 0 0 0 0 0 0 0 0 0 0 0 0 0 0 0 127 0" result="hardAlpha"/>
<feOffset dy="1"/>
<feGaussianBlur stdDeviation="1.5"/>
<feColorMatrix type="matrix" values="0 0 0 0 0 0 0 0 0 0 0 0 0 0 0 0 0 0 0.210824 0"/>
<feBlend mode="normal" in2="effect1_dropShadow_8_464" result="effect2_dropShadow_8_464"/>
<feBlend mode="normal" in="SourceGraphic" in2="effect2_dropShadow_8_464" result="shape"/>
</filter>
</defs>
</svg>
