<svg width="66" height="66" viewBox="0 0 66 66" fill="none" xmlns="http://www.w3.org/2000/svg">
<g filter="url(#filter0_dd_8_390)">
<path fill-rule="evenodd" clip-rule="evenodd" d="M4.291 19.858C6.32073 10.0386 12.5658 4.56954 22.3071 2.91727C29.5081 1.69624 36.7118 1.68083 43.9006 2.95163C53.9307 4.72459 59.9602 10.5126 61.8811 20.4804C63.3652 28.1841 63.3885 35.9697 61.8578 43.6659C59.8044 53.4174 53.3983 59.4366 43.693 61.0827C36.4919 62.3038 29.2882 62.3192 22.0994 61.0484C12.0693 59.2754 6.01302 53.1985 4.09215 43.2307C2.53254 35.4763 2.68267 27.6414 4.291 19.858Z" fill="#777C8F"/>
</g>
<path fill-rule="evenodd" clip-rule="evenodd" d="M21.4916 14.2363H24.0376V18.986H49.8097V21.3167H18.4544V46.1927H16.1317V21.5455C16.1317 20.1319 17.2738 18.986 18.6825 18.986H21.4916V14.2363ZM39.8047 36.6842C38.1554 36.6842 36.8183 35.3425 36.8183 33.6874C36.8183 32.0324 38.1554 30.6907 39.8047 30.6907C41.454 30.6907 42.791 32.0324 42.791 33.6874C42.791 35.3425 41.454 36.6842 39.8047 36.6842ZM34.8853 33.6874C34.8853 36.4138 37.0878 38.624 39.8047 38.624C42.5216 38.624 44.7241 36.4138 44.7241 33.6874C44.7241 30.961 42.5216 28.7509 39.8047 28.7509C37.0878 28.7509 34.8853 30.961 34.8853 33.6874ZM47.4872 40.5417V26.6291H49.8098V40.9601C49.8098 43.8501 47.4753 46.1927 44.5954 46.1927H22.3831V43.862H44.1785C46.0059 43.862 47.4872 42.3755 47.4872 40.5417ZM31.4075 31.9185V29.6998H22.4296V31.9185H31.4075ZM23.8366 38.0366C24.6136 38.0366 25.2436 37.4045 25.2436 36.6247C25.2436 35.845 24.6136 35.2128 23.8366 35.2128C23.0595 35.2128 22.4296 35.845 22.4296 36.6247C22.4296 37.4045 23.0595 38.0366 23.8366 38.0366ZM31.4075 36.6247C31.4075 37.4045 30.7775 38.0366 30.0005 38.0366C29.2234 38.0366 28.5935 37.4045 28.5935 36.6247C28.5935 35.845 29.2234 35.2128 30.0005 35.2128C30.7775 35.2128 31.4075 35.845 31.4075 36.6247Z" fill="white"/>
<defs>
<filter id="filter0_dd_8_390" x="0" y="0" width="66" height="66" filterUnits="userSpaceOnUse" color-interpolation-filters="sRGB">
<feFlood flood-opacity="0" result="BackgroundImageFix"/>
<feColorMatrix in="SourceAlpha" type="matrix" values="0 0 0 0 0 0 0 0 0 0 0 0 0 0 0 0 0 0 127 0" result="hardAlpha"/>
<feOffset dy="1"/>
<feGaussianBlur stdDeviation="1"/>
<feColorMatrix type="matrix" values="0 0 0 0 0 0 0 0 0 0 0 0 0 0 0 0 0 0 0.078125 0"/>
<feBlend mode="normal" in2="BackgroundImageFix" result="effect1_dropShadow_8_390"/>
<feColorMatrix in="SourceAlpha" type="matrix" values="0 0 0 0 0 0 0 0 0 0 0 0 0 0 0 0 0 0 127 0" result="hardAlpha"/>
<feOffset dy="1"/>
<feGaussianBlur stdDeviation="1.5"/>
<feColorMatrix type="matrix" values="0 0 0 0 0 0 0 0 0 0 0 0 0 0 0 0 0 0 0.210824 0"/>
<feBlend mode="normal" in2="effect1_dropShadow_8_390" result="effect2_dropShadow_8_390"/>
<feBlend mode="normal" in="SourceGraphic" in2="effect2_dropShadow_8_390" result="shape"/>
</filter>
</defs>
</svg>
