<svg width="66" height="66" viewBox="0 0 66 66" fill="none" xmlns="http://www.w3.org/2000/svg">
<g filter="url(#filter0_dd_8_366)">
<path fill-rule="evenodd" clip-rule="evenodd" d="M4.291 19.858C6.32073 10.0386 12.5658 4.56954 22.3071 2.91727C29.5081 1.69624 36.7118 1.68083 43.9006 2.95163C53.9307 4.72459 59.9602 10.5126 61.8811 20.4804C63.3652 28.1841 63.3885 35.9697 61.8578 43.6659C59.8044 53.4174 53.3983 59.4366 43.693 61.0827C36.4919 62.3038 29.2882 62.3192 22.0994 61.0484C12.0693 59.2754 6.01302 53.1985 4.09215 43.2307C2.53254 35.4763 2.68267 27.6414 4.291 19.858Z" fill="#777C8F"/>
</g>
<path fill-rule="evenodd" clip-rule="evenodd" d="M17.803 17.8669C16.4359 17.8669 15.3278 18.9789 15.3278 20.3507V46.2042H17.8737V20.4217H50.7031V17.8669H17.803ZM22.7869 27.9967H25.2883V25.4866H22.7869V27.9967ZM29.8889 27.9967H27.3876V25.4866H29.8889V27.9967ZM31.9882 27.9967H34.4894V25.4866H31.9882V27.9967ZM39.0901 27.9967H36.5887V25.4866H39.0901V27.9967ZM41.1893 27.9967H43.6906V25.4866H41.1893V27.9967ZM25.2883 33.4949H22.787V30.9849H25.2883V33.4949ZM27.3876 33.4949H29.8889V30.9849H27.3876V33.4949ZM39.09 39.8148H27.3876V37.3047H39.09V39.8148ZM31.9882 33.4949H34.4894V30.9849H31.9882V33.4949ZM39.0901 33.4949H36.5887V30.9849H39.0901V33.4949ZM41.1893 33.4949H43.6906V30.9849H41.1893V33.4949ZM44.5559 43.6494C46.5448 43.6494 48.1571 42.0314 48.1571 40.0355V25.128H50.703V39.9996C50.703 43.4263 47.9349 46.2042 44.5201 46.2042H22.0276V43.6494H44.5559Z" fill="white"/>
<defs>
<filter id="filter0_dd_8_366" x="0" y="0" width="66" height="66" filterUnits="userSpaceOnUse" color-interpolation-filters="sRGB">
<feFlood flood-opacity="0" result="BackgroundImageFix"/>
<feColorMatrix in="SourceAlpha" type="matrix" values="0 0 0 0 0 0 0 0 0 0 0 0 0 0 0 0 0 0 127 0" result="hardAlpha"/>
<feOffset dy="1"/>
<feGaussianBlur stdDeviation="1"/>
<feColorMatrix type="matrix" values="0 0 0 0 0 0 0 0 0 0 0 0 0 0 0 0 0 0 0.078125 0"/>
<feBlend mode="normal" in2="BackgroundImageFix" result="effect1_dropShadow_8_366"/>
<feColorMatrix in="SourceAlpha" type="matrix" values="0 0 0 0 0 0 0 0 0 0 0 0 0 0 0 0 0 0 127 0" result="hardAlpha"/>
<feOffset dy="1"/>
<feGaussianBlur stdDeviation="1.5"/>
<feColorMatrix type="matrix" values="0 0 0 0 0 0 0 0 0 0 0 0 0 0 0 0 0 0 0.210824 0"/>
<feBlend mode="normal" in2="effect1_dropShadow_8_366" result="effect2_dropShadow_8_366"/>
<feBlend mode="normal" in="SourceGraphic" in2="effect2_dropShadow_8_366" result="shape"/>
</filter>
</defs>
</svg>
