<svg width="66" height="66" viewBox="0 0 66 66" fill="none" xmlns="http://www.w3.org/2000/svg">
<g filter="url(#filter0_dd_8_438)">
<path fill-rule="evenodd" clip-rule="evenodd" d="M4.291 19.858C6.32073 10.0386 12.5658 4.56954 22.3071 2.91727C29.5081 1.69624 36.7118 1.68083 43.9006 2.95163C53.9307 4.72459 59.9602 10.5126 61.8811 20.4804C63.3652 28.1841 63.3885 35.9697 61.8578 43.6659C59.8044 53.4174 53.3983 59.4366 43.693 61.0827C36.4919 62.3038 29.2882 62.3192 22.0994 61.0484C12.0693 59.2754 6.01302 53.1985 4.09215 43.2307C2.53254 35.4763 2.68267 27.6414 4.291 19.858Z" fill="#777C8F"/>
</g>
<path fill-rule="evenodd" clip-rule="evenodd" d="M17.8709 46.1045H15.3278V20.7952C15.3278 19.4751 16.3942 18.4047 17.71 18.4047H50.5998V20.9567H17.8709V46.1045ZM21.0369 26.9721L22.8953 25.23L32.059 34.6702C32.6822 35.3397 33.7258 35.3829 34.4018 34.767C34.4018 34.767 42.379 27.6516 44.5996 25.7409C46.8202 23.8302 50.5998 24.3653 50.5998 27.2113V40.73C50.5998 43.6983 48.202 46.1045 45.2441 46.1045H21.9494V43.5526H45.1988C46.777 43.5526 48.0566 42.2686 48.0566 40.6847V27.7738C48.0566 26.8175 47.3952 26.9166 46.979 27.2911L35.1235 37.5589C33.9464 38.6184 32.1406 38.5369 31.0632 37.3755L21.0369 26.9721Z" fill="white"/>
<defs>
<filter id="filter0_dd_8_438" x="0" y="0" width="66" height="66" filterUnits="userSpaceOnUse" color-interpolation-filters="sRGB">
<feFlood flood-opacity="0" result="BackgroundImageFix"/>
<feColorMatrix in="SourceAlpha" type="matrix" values="0 0 0 0 0 0 0 0 0 0 0 0 0 0 0 0 0 0 127 0" result="hardAlpha"/>
<feOffset dy="1"/>
<feGaussianBlur stdDeviation="1"/>
<feColorMatrix type="matrix" values="0 0 0 0 0 0 0 0 0 0 0 0 0 0 0 0 0 0 0.078125 0"/>
<feBlend mode="normal" in2="BackgroundImageFix" result="effect1_dropShadow_8_438"/>
<feColorMatrix in="SourceAlpha" type="matrix" values="0 0 0 0 0 0 0 0 0 0 0 0 0 0 0 0 0 0 127 0" result="hardAlpha"/>
<feOffset dy="1"/>
<feGaussianBlur stdDeviation="1.5"/>
<feColorMatrix type="matrix" values="0 0 0 0 0 0 0 0 0 0 0 0 0 0 0 0 0 0 0.210824 0"/>
<feBlend mode="normal" in2="effect1_dropShadow_8_438" result="effect2_dropShadow_8_438"/>
<feBlend mode="normal" in="SourceGraphic" in2="effect2_dropShadow_8_438" result="shape"/>
</filter>
</defs>
</svg>
