<svg width="66" height="66" viewBox="0 0 66 66" fill="none" xmlns="http://www.w3.org/2000/svg">
<g filter="url(#filter0_dd_8_412)">
<path fill-rule="evenodd" clip-rule="evenodd" d="M4.291 19.858C6.32073 10.0386 12.5658 4.56954 22.3071 2.91727C29.5081 1.69624 36.7118 1.68083 43.9006 2.95163C53.9307 4.72459 59.9602 10.5126 61.8811 20.4804C63.3652 28.1841 63.3885 35.9697 61.8578 43.6659C59.8044 53.4174 53.3983 59.4366 43.693 61.0827C36.4919 62.3038 29.2882 62.3192 22.0994 61.0484C12.0693 59.2754 6.01302 53.1985 4.09215 43.2307C2.53254 35.4763 2.68267 27.6414 4.291 19.858Z" fill="#777C8F"/>
</g>
<path fill-rule="evenodd" clip-rule="evenodd" d="M49.2023 38.7964C50.8628 38.3715 51.929 37.6638 52.1893 36.6795C52.4504 35.6928 51.8684 34.5442 50.6303 33.3457C50.4427 35.2689 49.9521 37.1026 49.2023 38.7964ZM17.9984 31.7282C21.184 33.806 26.0088 35.8623 31.5828 37.3471C37.064 38.8071 42.189 39.4267 45.9649 39.2387C47.282 36.9977 48.0385 34.3856 48.0385 31.5955C48.0385 23.2708 41.3135 16.5222 33.0177 16.5222C24.7219 16.5222 17.9967 23.2708 17.9967 31.5955C17.9967 31.6216 17.9972 31.6476 17.9976 31.6736C17.998 31.6918 17.9983 31.71 17.9984 31.7282ZM16.8089 24.4493C15.2627 24.8788 14.269 25.5674 14.0192 26.5116C13.7695 27.4557 14.2887 28.5477 15.4183 29.6901C15.6146 27.8438 16.093 26.0823 16.8089 24.4493ZM18.2756 21.7622C21.4478 16.9828 26.8659 13.8329 33.0177 13.8329C42.3888 13.8329 50.058 21.1411 50.677 30.3876C53.6341 32.7704 55.1517 35.2681 54.585 37.4105C54.0151 39.5645 51.4389 40.9823 47.6601 41.5741C47.6408 41.6028 45.5608 41.8695 44.369 41.8703C40.4401 41.997 35.7125 41.4358 30.768 40.1187C18.8499 36.9438 10.1898 30.584 11.4252 25.9137C11.9912 23.7738 14.5377 22.361 18.2756 21.7622ZM33.0177 46.6689C35.9089 46.6689 38.6088 45.8484 40.9003 44.4279C42.4509 44.513 43.9175 44.5067 45.2728 44.4116C42.0922 47.475 37.7743 49.3582 33.0177 49.3582C24.8198 49.3582 17.9247 43.7654 15.9118 36.1749C17.0125 36.9835 18.2758 37.7733 19.6758 38.5258C22.1763 43.3633 27.2119 46.6689 33.0177 46.6689Z" fill="white"/>
<defs>
<filter id="filter0_dd_8_412" x="0" y="0" width="66" height="66" filterUnits="userSpaceOnUse" color-interpolation-filters="sRGB">
<feFlood flood-opacity="0" result="BackgroundImageFix"/>
<feColorMatrix in="SourceAlpha" type="matrix" values="0 0 0 0 0 0 0 0 0 0 0 0 0 0 0 0 0 0 127 0" result="hardAlpha"/>
<feOffset dy="1"/>
<feGaussianBlur stdDeviation="1"/>
<feColorMatrix type="matrix" values="0 0 0 0 0 0 0 0 0 0 0 0 0 0 0 0 0 0 0.078125 0"/>
<feBlend mode="normal" in2="BackgroundImageFix" result="effect1_dropShadow_8_412"/>
<feColorMatrix in="SourceAlpha" type="matrix" values="0 0 0 0 0 0 0 0 0 0 0 0 0 0 0 0 0 0 127 0" result="hardAlpha"/>
<feOffset dy="1"/>
<feGaussianBlur stdDeviation="1.5"/>
<feColorMatrix type="matrix" values="0 0 0 0 0 0 0 0 0 0 0 0 0 0 0 0 0 0 0.210824 0"/>
<feBlend mode="normal" in2="effect1_dropShadow_8_412" result="effect2_dropShadow_8_412"/>
<feBlend mode="normal" in="SourceGraphic" in2="effect2_dropShadow_8_412" result="shape"/>
</filter>
</defs>
</svg>
